<svg width="152" height="45" viewBox="0 0 152 45" fill="none" xmlns="http://www.w3.org/2000/svg">
<path d="M130.076 24.9828L117.27 10.7725C117.115 10.6013 116.925 10.4655 116.713 10.3747C116.501 10.2838 116.272 10.24 116.042 10.2462H107.445C107.313 10.2467 107.184 10.2849 107.073 10.3562C106.963 10.4275 106.874 10.529 106.819 10.6487C106.764 10.7685 106.744 10.9015 106.761 11.0322C106.779 11.1629 106.834 11.2858 106.919 11.3865L119.199 24.9828L102.27 43.8596C102.185 43.9604 102.13 44.0833 102.112 44.214C102.095 44.3446 102.115 44.4777 102.17 44.5974C102.225 44.7171 102.313 44.8186 102.424 44.8899C102.535 44.9612 102.664 44.9994 102.796 45H111.568C112.031 44.9934 112.472 44.8042 112.796 44.4737L130.076 25.0003V24.9828Z" fill="black"/>
<path d="M151.681 0.623597C151.625 0.437129 151.508 0.274708 151.349 0.161942C151.191 0.0491772 150.999 -0.00751648 150.804 0.000800335H142.12C141.861 0.00351418 141.605 0.0576385 141.367 0.160032C141.129 0.262426 140.914 0.411051 140.734 0.597281L126.962 16.0444L132.699 22.4215L151.383 1.43937C151.515 1.35449 151.615 1.22885 151.669 1.08158C151.723 0.934319 151.727 0.773495 151.681 0.623597Z" fill="black"/>
<path d="M132.813 27.4828L127.085 33.9476L128.84 35.9563L132.576 40.2633C132.756 40.4473 132.97 40.5939 133.206 40.6948C133.443 40.7956 133.697 40.8487 133.954 40.851H142.725C142.895 40.8556 143.063 40.8108 143.207 40.722C143.352 40.6332 143.468 40.5044 143.541 40.351C143.615 40.1876 143.642 40.0073 143.62 39.8295C143.599 39.6517 143.529 39.4832 143.418 39.3422L132.813 27.4828Z" fill="black"/>
<path d="M10.6767 36.8702C8.49821 36.8702 6.63094 36.5368 5.07488 35.8699C3.51883 35.1808 2.31844 34.1582 1.47372 32.8022C0.651234 31.424 0.23999 29.7012 0.23999 27.6339V14.5627C0.23999 14.0104 0.687705 13.5627 1.23999 13.5627H5.50868C6.06096 13.5627 6.50868 14.0104 6.50868 14.5627V27.5672C6.50868 28.9232 6.85323 30.0013 7.54234 30.8016C8.23146 31.6018 9.26512 32.002 10.6433 32.002C12.0216 32.002 13.0663 31.6018 13.7777 30.8016C14.489 30.0013 14.8447 28.9232 14.8447 27.5672V14.5627C14.8447 14.0104 15.2924 13.5627 15.8447 13.5627H20.1134C20.6657 13.5627 21.1134 14.0104 21.1134 14.5627V27.6339C21.1134 29.7012 20.691 31.424 19.8463 32.8022C19.0238 34.1582 17.8346 35.1808 16.2785 35.8699C14.7224 36.5368 12.8552 36.8702 10.6767 36.8702Z" fill="black"/>
<path d="M25.2394 36.6701C24.6871 36.6701 24.2394 36.2224 24.2394 35.6701V14.7628C24.2394 14.2105 24.6871 13.7628 25.2394 13.7628H32.436C32.8912 13.7628 33.289 14.0702 33.4037 14.5107L35.7097 23.3659C35.8209 23.6993 35.9432 24.1883 36.0765 24.833C36.2321 25.4554 36.3877 26.1112 36.5433 26.8003C36.6871 27.4164 36.8214 27.9851 36.9462 28.5064C36.9641 28.5814 37.0312 28.6342 37.1083 28.6342C37.1871 28.6342 37.2552 28.579 37.2715 28.5019C37.3554 28.1064 37.4573 27.6392 37.577 27.1004C37.7104 26.478 37.8549 25.8444 38.0105 25.1998C38.1661 24.5329 38.3106 23.9216 38.444 23.3659L40.7184 14.5139C40.832 14.0718 41.2305 13.7628 41.687 13.7628H48.6476C49.1999 13.7628 49.6476 14.2105 49.6476 14.7628V35.6701C49.6476 36.2224 49.1999 36.6701 48.6476 36.6701H44.6123C44.06 36.6701 43.6123 36.2224 43.6123 35.6701V27.3338C43.6123 26.4224 43.6123 25.4888 43.6123 24.5329C43.6345 23.577 43.6567 22.7101 43.679 21.9321C43.6987 21.2236 43.7096 20.672 43.7119 20.2771C43.7123 20.1966 43.6471 20.1315 43.5666 20.1315C43.4964 20.1315 43.4363 20.1814 43.4229 20.2502C43.357 20.5911 43.2645 21.0295 43.1455 21.5653C43.0121 22.1432 42.8676 22.7434 42.712 23.3659C42.5786 23.9883 42.4452 24.5329 42.3119 24.9997L39.4083 35.9269C39.2919 36.3651 38.8953 36.6701 38.4419 36.6701H35.0428C34.5904 36.6701 34.1944 36.3664 34.077 35.9295L31.1416 24.9997C31.0305 24.5774 30.8971 24.0772 30.7415 23.4992C30.6081 22.899 30.4747 22.2988 30.3413 21.6986C30.24 21.1516 30.148 20.6785 30.0651 20.2792C30.0513 20.2125 29.9925 20.1648 29.9244 20.1648C29.8426 20.1648 29.7772 20.2328 29.7804 20.3145C29.8006 20.8428 29.8209 21.482 29.8412 22.2322C29.8634 23.0546 29.8745 23.9105 29.8745 24.7996C29.8968 25.6888 29.9079 26.5335 29.9079 27.3338V35.6701C29.9079 36.2224 29.4602 36.6701 28.9079 36.6701H25.2394Z" fill="black"/>
<path d="M53.7736 36.6701C53.2213 36.6701 52.7736 36.2224 52.7736 35.6701V14.7628C52.7736 14.2105 53.2213 13.7628 53.7736 13.7628H58.0423C58.5946 13.7628 59.0423 14.2105 59.0423 14.7628V35.6701C59.0423 36.2224 58.5946 36.6701 58.0423 36.6701H53.7736Z" fill="black"/>
<path d="M70.3039 36.6701C69.7516 36.6701 69.3039 36.2224 69.3039 35.6701V19.8644C69.3039 19.3121 68.8562 18.8644 68.3039 18.8644H63.1683C62.616 18.8644 62.1683 18.4167 62.1683 17.8644V14.7628C62.1683 14.2105 62.616 13.7628 63.1683 13.7628H81.7082C82.2605 13.7628 82.7082 14.2105 82.7082 14.7628V17.8644C82.7082 18.4167 82.2605 18.8644 81.7082 18.8644H76.5726C76.0203 18.8644 75.5726 19.3121 75.5726 19.8644V35.6701C75.5726 36.2224 75.1249 36.6701 74.5726 36.6701H70.3039Z" fill="black"/>
<path d="M86.8342 36.6701C86.2819 36.6701 85.8342 36.2224 85.8342 35.6701V14.7628C85.8342 14.2105 86.2819 13.7628 86.8342 13.7628H103.34C103.892 13.7628 104.34 14.2105 104.34 14.7628V17.631C104.34 18.1833 103.892 18.631 103.34 18.631H93.1029C92.5506 18.631 92.1029 19.0787 92.1029 19.631V21.6323C92.1029 22.1846 92.5506 22.6323 93.1029 22.6323H101.706C102.259 22.6323 102.706 23.08 102.706 23.6323V26.4005C102.706 26.9528 102.259 27.4005 101.706 27.4005H93.1029C92.5506 27.4005 92.1029 27.8482 92.1029 28.4005V30.8019C92.1029 31.3542 92.5506 31.8019 93.1029 31.8019H103.574C104.126 31.8019 104.574 32.2496 104.574 32.8019V35.6701C104.574 36.2224 104.126 36.6701 103.574 36.6701H86.8342Z" fill="black"/>
</svg>
