<svg width="152" height="45" viewBox="0 0 152 45" fill="none" xmlns="http://www.w3.org/2000/svg">
<path d="M129.836 24.9828L117.03 10.7725C116.875 10.6013 116.685 10.4655 116.473 10.3747C116.261 10.2838 116.032 10.24 115.802 10.2462H107.205C107.073 10.2467 106.944 10.2849 106.833 10.3562C106.723 10.4275 106.634 10.529 106.579 10.6487C106.524 10.7685 106.504 10.9015 106.521 11.0322C106.539 11.1629 106.594 11.2858 106.679 11.3865L118.959 24.9828L102.03 43.8596C101.945 43.9604 101.89 44.0833 101.872 44.214C101.855 44.3446 101.875 44.4777 101.93 44.5974C101.985 44.7171 102.073 44.8186 102.184 44.8899C102.295 44.9612 102.424 44.9994 102.556 45H111.328C111.791 44.9934 112.232 44.8042 112.556 44.4737L129.836 25.0003V24.9828Z" fill="white"/>
<path d="M151.441 0.623597C151.385 0.437129 151.268 0.274708 151.109 0.161942C150.951 0.0491772 150.759 -0.00751648 150.564 0.000800335H141.88C141.621 0.00351418 141.365 0.0576385 141.127 0.160032C140.889 0.262426 140.674 0.411051 140.494 0.597281L126.722 16.0444L132.459 22.4215L151.143 1.43937C151.275 1.35449 151.375 1.22885 151.429 1.08158C151.483 0.934319 151.487 0.773495 151.441 0.623597V0.623597Z" fill="white"/>
<path d="M132.573 27.4828L126.845 33.9476L128.6 35.9563L132.336 40.2633C132.516 40.4473 132.73 40.5939 132.966 40.6948C133.203 40.7956 133.457 40.8487 133.714 40.851H142.485C142.655 40.8556 142.823 40.8108 142.967 40.722C143.112 40.6332 143.228 40.5044 143.301 40.351C143.375 40.1876 143.402 40.0073 143.38 39.8295C143.359 39.6517 143.289 39.4832 143.178 39.3422L132.573 27.4828Z" fill="white"/>
<path d="M10.4367 36.8702C8.25822 36.8702 6.39095 36.5368 4.83489 35.8699C3.27883 35.1808 2.07845 34.1582 1.23373 32.8022C0.411244 31.424 0 29.7012 0 27.6339V14.5627C0 14.0104 0.447715 13.5627 1 13.5627H5.26869C5.82097 13.5627 6.26869 14.0104 6.26869 14.5627V27.5672C6.26869 28.9232 6.61324 30.0013 7.30235 30.8016C7.99146 31.6018 9.02513 32.002 10.4034 32.002C11.7816 32.002 12.8264 31.6018 13.5377 30.8016C14.249 30.0013 14.6047 28.9232 14.6047 27.5672V14.5627C14.6047 14.0104 15.0524 13.5627 15.6047 13.5627H19.8734C20.4257 13.5627 20.8734 14.0104 20.8734 14.5627V27.6339C20.8734 29.7012 20.451 31.424 19.6063 32.8022C18.7838 34.1582 17.5946 35.1808 16.0385 35.8699C14.4824 36.5368 12.6152 36.8702 10.4367 36.8702Z" fill="white"/>
<path d="M24.9994 36.6701C24.4471 36.6701 23.9994 36.2224 23.9994 35.6701V14.7628C23.9994 14.2105 24.4471 13.7628 24.9994 13.7628H32.196C32.6512 13.7628 33.049 14.0702 33.1637 14.5107L35.4698 23.3659C35.5809 23.6993 35.7032 24.1883 35.8365 24.833C35.9921 25.4554 36.1478 26.1112 36.3034 26.8003C36.4471 27.4164 36.5814 27.9851 36.7062 28.5064C36.7241 28.5814 36.7912 28.6342 36.8683 28.6342V28.6342C36.9471 28.6342 37.0152 28.579 37.0315 28.5019C37.1155 28.1064 37.2173 27.6392 37.337 27.1004C37.4704 26.478 37.6149 25.8444 37.7705 25.1998C37.9261 24.5329 38.0706 23.9216 38.204 23.3659L40.4784 14.5139C40.592 14.0718 40.9905 13.7628 41.447 13.7628H48.4076C48.9599 13.7628 49.4076 14.2105 49.4076 14.7628V35.6701C49.4076 36.2224 48.9599 36.6701 48.4076 36.6701H44.3723C43.82 36.6701 43.3723 36.2224 43.3723 35.6701V27.3338C43.3723 26.4224 43.3723 25.4888 43.3723 24.5329C43.3945 23.577 43.4168 22.7101 43.439 21.9321C43.4587 21.2236 43.4696 20.672 43.4719 20.2771C43.4724 20.1966 43.4071 20.1315 43.3266 20.1315V20.1315C43.2564 20.1315 43.1963 20.1814 43.183 20.2502C43.117 20.5911 43.0245 21.0295 42.9055 21.5653C42.7721 22.1432 42.6276 22.7434 42.472 23.3659C42.3386 23.9883 42.2053 24.5329 42.0719 24.9997L39.1684 35.9269C39.0519 36.3651 38.6553 36.6701 38.2019 36.6701H34.8028C34.3504 36.6701 33.9544 36.3664 33.837 35.9295L30.9016 24.9997C30.7905 24.5774 30.6571 24.0772 30.5015 23.4992C30.3681 22.899 30.2347 22.2988 30.1014 21.6986C30.0001 21.1516 29.908 20.6785 29.8252 20.2792C29.8113 20.2125 29.7525 20.1648 29.6844 20.1648V20.1648C29.6026 20.1648 29.5372 20.2328 29.5404 20.3145C29.5606 20.8428 29.5809 21.482 29.6012 22.2322C29.6234 23.0546 29.6345 23.9105 29.6345 24.7996C29.6568 25.6888 29.6679 26.5335 29.6679 27.3338V35.6701C29.6679 36.2224 29.2202 36.6701 28.6679 36.6701H24.9994Z" fill="white"/>
<path d="M53.5336 36.6701C52.9813 36.6701 52.5336 36.2224 52.5336 35.6701V14.7628C52.5336 14.2105 52.9813 13.7628 53.5336 13.7628H57.8023C58.3546 13.7628 58.8023 14.2105 58.8023 14.7628V35.6701C58.8023 36.2224 58.3546 36.6701 57.8023 36.6701H53.5336Z" fill="white"/>
<path d="M70.0639 36.6701C69.5116 36.6701 69.0639 36.2224 69.0639 35.6701V19.8644C69.0639 19.3121 68.6162 18.8644 68.0639 18.8644H62.9283C62.376 18.8644 61.9283 18.4167 61.9283 17.8644V14.7628C61.9283 14.2105 62.376 13.7628 62.9283 13.7628H81.4682C82.0205 13.7628 82.4682 14.2105 82.4682 14.7628V17.8644C82.4682 18.4167 82.0205 18.8644 81.4682 18.8644H76.3326C75.7803 18.8644 75.3326 19.3121 75.3326 19.8644V35.6701C75.3326 36.2224 74.8849 36.6701 74.3326 36.6701H70.0639Z" fill="white"/>
<path d="M86.5942 36.6701C86.042 36.6701 85.5942 36.2224 85.5942 35.6701V14.7628C85.5942 14.2105 86.042 13.7628 86.5942 13.7628H103.1C103.652 13.7628 104.1 14.2105 104.1 14.7628V17.631C104.1 18.1833 103.652 18.631 103.1 18.631H92.8629C92.3106 18.631 91.8629 19.0787 91.8629 19.631V21.6323C91.8629 22.1846 92.3106 22.6323 92.8629 22.6323H101.466C102.019 22.6323 102.466 23.08 102.466 23.6323V26.4005C102.466 26.9528 102.019 27.4005 101.466 27.4005H92.8629C92.3106 27.4005 91.8629 27.8482 91.8629 28.4005V30.8019C91.8629 31.3542 92.3106 31.8019 92.8629 31.8019H103.334C103.886 31.8019 104.334 32.2496 104.334 32.8019V35.6701C104.334 36.2224 103.886 36.6701 103.334 36.6701H86.5942Z" fill="white"/>
</svg>
